<?xml version="1.0" encoding="utf-8"?>
<!-- Generator: Adobe Illustrator 24.1.2, SVG Export Plug-In . SVG Version: 6.00 Build 0)  -->
<svg version="1.1" id="Слой_1" xmlns="http://www.w3.org/2000/svg" xmlns:xlink="http://www.w3.org/1999/xlink" x="0px" y="0px"
	 viewBox="0 0 87.8740158 87.8740158" style="enable-background:new 0 0 87.8740158 87.8740158;" xml:space="preserve">
<style type="text/css">
	.st0{fill:#E7373E;}
</style>
<g>
	<g>
		<path class="st0" d="M61.4927101,86.4566956H26.3815117c-13.7652597,0-24.9641895-10.8971176-24.9641895-24.2916145V25.7089367
			c0-13.3944025,11.1989288-24.2916145,24.9641895-24.2916145h35.1111984c13.765255,0,24.9639854,10.8972111,24.9639854,24.2916145
			V62.165081C86.4566956,75.5595779,75.2579651,86.4566956,61.4927101,86.4566956z M26.3815117,7.6458349
			c-10.2356949,0-18.5632248,8.1031713-18.5632248,18.0631027V62.165081c0,9.9599266,8.3275299,18.0630989,18.5632248,18.0630989
			h35.1111984c10.2356911,0,18.563015-8.1031723,18.563015-18.0630989V25.7089367
			c0-9.9599304-8.3273239-18.0631027-18.563015-18.0631027H26.3815117z"/>
	</g>
	<g>
		<path class="st0" d="M43.9370575,66.411438c-12.8026257,0-23.2182999-10.1350632-23.2182999-22.592762
			c0-6.1427879,2.5943718-12.1177006,7.118-16.3929882c4.4107552-4.1683693,10.1711578-6.3629055,16.2141533-6.1981297
			c7.2297668,0.2054138,13.2291031,2.5765305,17.3500137,6.8571396c3.9051361,4.0567131,5.8946381,9.5261688,5.7534409,15.8170891
			c-0.1353302,6.0224228-2.5768738,11.6619759-6.8751755,15.8800812
			C55.9226227,64.0569611,50.118866,66.411438,43.9370575,66.411438z M43.4016953,28.8311749
			c-3.7600555,0-7.3368492,1.4307404-10.113987,4.0554562c-3.0157738,2.8500633-4.7453613,6.8347893-4.7453613,10.932045
			c0,8.2600136,6.9059982,14.97995,15.3947105,14.97995c8.4433784,0,15.2059898-6.6164093,15.3955078-15.0629692l0,0
			c0.0957565-4.2599983-1.1634979-7.8725014-3.6415291-10.4466171c-2.6641769-2.7676239-6.7681808-4.3071175-11.8681297-4.4517689
			C43.6824036,28.8332062,43.5416069,28.8311749,43.4016953,28.8311749z"/>
	</g>
	<g>
		<path class="st0" d="M73.1321335,20.5889645c0,2.9101486-2.4244385,5.269268-5.4151611,5.269268
			c-2.9908218,0-5.4152641-2.3591194-5.4152641-5.269268s2.4244423-5.2693644,5.4152641-5.2693644
			C70.707695,15.3196001,73.1321335,17.6788158,73.1321335,20.5889645z"/>
	</g>
</g>
</svg>
