<?xml version="1.0" encoding="utf-8"?>
<!-- Generator: Adobe Illustrator 24.1.2, SVG Export Plug-In . SVG Version: 6.00 Build 0)  -->
<svg version="1.1" id="Layer_1" xmlns="http://www.w3.org/2000/svg" xmlns:xlink="http://www.w3.org/1999/xlink" x="0px" y="0px"
	 viewBox="0 0 200 200.0000153" style="enable-background:new 0 0 200 200.0000153;" xml:space="preserve">
<style type="text/css">
	.st0{fill:#ffffff;}
</style>
<g>
	<path class="st0" d="M57.2130623,160.8424377l-9.1737442,8.3256226c-1.641655,1.4625854-0.6621284,5.2666779,2.4381104,8.2336731
		c3.0854378,2.9620209,6.983757,3.8023529,8.4732513,2.1458893l7.653019-9.7329865
		c1.471344-1.6425323,0.4720383-4.7481689-2.0273438-7.1533203
		C62.0717812,160.2666473,58.870388,159.3744354,57.2130623,160.8424377z"/>
	<path class="st0" d="M54.994545,151.8045197c-1.9469452-2.6679688-4.7539978-4.0219421-6.6957588-2.9672089l-10.745369,6.1469879
		c-1.9478111,1.0564728-1.6885567,5.1976166,0.9372711,8.7922668c2.6090736,3.5966034,6.2833672,5.0127258,7.9363708,3.5549927
		l9.3621063-8.0920868C57.4507027,157.7664032,56.9432182,154.4915161,54.994545,151.8045197z"/>
	<path class="st0" d="M47.3253174,147.0495605c1.9564514-1.0600433,2.297081-4.1567078,1.4472389-6.8056641
		c-0.8835602-2.6109161-2.8330994-4.4091644-5.0343246-4.2777405l-12.3100834,1.2673035
		c-2.2339706,0.1211395-3.6276112,4.6477661-2.0273457,9.4028473c1.5700035,4.7273102,5.0022278,7.1480103,6.9222641,6.0966339
		L47.3253174,147.0495605z"/>
	<path class="st0" d="M31.2517834,134.4238129L43.632,134.1937256c2.2192726-0.1468506,3.9110718-2.1265411,4.4982033-4.1255798
		c0.5161285-2.0315552,0.0932617-4.6355591-1.7576103-5.8804932l-10.56987-6.4563904
		c-0.9423485-0.5810776-2.3283157-0.2593613-3.7660446,0.9423523c-1.434166,1.1723175-2.8415298,3.3267517-3.5747681,6.0068283
		c-0.7410183,2.6783447-0.6025829,5.2598648,0.016428,7.0182266
		C29.0904312,133.4814606,30.1701355,134.4427185,31.2517834,134.4238129z"/>
	<path class="st0" d="M37.3614883,115.4125671l10.0113754,7.2811584c1.8483887,1.2276459,4.4272041,0.6016159,6.5522461-1.2743301
		c1.055603-0.9770432,1.8908577-2.1595154,2.2806549-3.3597107c0.3449516-1.1168823,0.3122063-2.3031387-0.2722206-3.2333832
		l-6.6076813-10.4642868c-0.5973969-0.9492645-1.9400291-1.2727127-3.6907234-0.9320831
		c-1.6426277,0.3113403-3.612915,1.2363968-5.4179649,2.8894043
		C36.5323944,109.5924835,35.5001335,114.1970215,37.3614883,115.4125671z"/>
	<path class="st0" d="M58.8253212,96.0363846c-5.3791695,1.2865448-8.2554932,5.0524826-7.1125717,6.9422531l5.8053894,10.9382782
		c1.1196861,1.8881531,3.7771759,2.4811172,5.9696503,1.9676895c2.1804771-0.5429306,4.2752571-2.1838303,4.4394112-4.4213638
		l0.3805084-12.373085C68.4918518,96.9321518,64.2235107,94.7672348,58.8253212,96.0363846z"/>
	<path class="st0" d="M80.3523788,97.2017822c-4.6952133-1.5214844-9.1372223-0.1261139-9.2754364,2.0871124l-1.3366928,12.3074875
		c-0.1391907,2.2167892,1.724762,4.1706467,4.4298019,5.0385361c2.722435,0.87146,5.8547745,0.4495621,6.8679047-1.5145645
		l5.4380646-11.1266327C87.4875336,102.0345612,85.0114899,98.71138,80.3523788,97.2017822z"/>
	<path class="st0" d="M97.460762,105.7520828c-3.6241531-2.4378891-7.721962-2.5762177-8.7300186-0.5998764l-5.8684998,10.9053116
		c-1.0055695,1.9659576,0.46772,4.768692,3.2774734,6.6551208c2.8192673,1.8898849,6.1823273,2.2634735,7.556839,0.5256424
		l7.5785599-9.7969742C102.6447601,111.7192535,101.0832977,108.179718,97.460762,105.7520828z"/>
	<path class="st0" d="M111.4076385,116.6573944c-3.0864105-2.730217-6.8662872-3.4511337-8.240799-1.7168655l-7.7567673,9.6481628
		c-1.371048,1.7430191-0.2299652,4.9332809,2.4762573,7.3399429c2.7248154,2.4139099,6.1397552,3.2074432,7.6700974,1.6065369
		l8.5191803-8.9878693C115.6005478,122.9495239,114.4836731,119.3894501,111.4076385,116.6573944z"/>
	<path class="st0" d="M123.7012939,128.3580933c-2.8010025-2.8148422-6.3975983-3.7864761-7.9312973-2.1889191l-8.5881271,8.9116821
		c-1.537262,1.6028595-0.6052856,4.9866638,2.069603,7.6685791c2.6627808,2.6834259,6.1277542,3.682724,7.7150497,2.1353149
		l8.8547287-8.6592407C127.4034653,134.6814423,126.4921341,131.1644897,123.7012939,128.3580933z"/>
	<path class="st0" d="M135.1356964,139.9862671c-2.6472168-2.6577148-6.1226654-3.6674957-7.7046738-2.1199646l-8.8598099,8.6558838
		c-1.5752945,1.5509796-0.6830902,5.0471802,2.147522,7.884491c2.8235855,2.8461761,6.5947113,3.8784485,8.0798798,2.2272797
		l8.3619537-9.1296539C138.6354675,145.8599548,137.7726593,142.6316528,135.1356964,139.9862671z"/>
	<path class="st0" d="M145.9027863,149.3456726c-2.5487671-1.678833-5.6713715-2.0800934-7.158493-0.4321747l-8.1040955,9.3612518
		c-1.4715576,1.6322479,0.0690613,5.4637756,3.9940643,8.0677795c3.9303131,2.6179352,8.2563629,2.5868073,9.1279297,0.5550385
		l5.2304688-11.2250824C149.8796844,153.6373596,148.4324341,151.0385437,145.9027863,149.3456726z"/>
	<path class="st0" d="M157.2385406,154.2458801c-2.6714325-0.5307159-5.5571594,0.1712799-6.4408264,2.2132263
		l-4.6252899,11.4845428c-0.8852997,2.0023956,2.0230255,5.263443,6.9647369,6.2818604
		c4.9347992,1.0253448,9.1227264-0.8679962,9.0223389-3.0760345l-0.0069122-12.3871307
		C162.0662384,156.549118,159.9030457,154.8115082,157.2385406,154.2458801z"/>
	<path class="st0" d="M174.4395447,155.4112854c-1.2605133-1.8293762-3.8351135-2.2597046-6.1624451-1.5648193
		c-2.3048706,0.7521515-4.3486481,2.6283112-4.269104,4.8570862l0.8886414,12.3508301
		c0.0587921,2.1802673,4.3712158,3.848938,9.4841156,2.2546082c5.119812-1.588913,7.8431091-5.5692596,6.5895233-7.3710632
		L174.4395447,155.4112854z"/>
	<path class="st0" d="M193.794754,150.6582489l-11.5259399-4.5320282c-2.0991058-0.7106476-4.4023438,0.4063416-5.7613983,2.1268768
		c-1.3192902,1.7705841-1.8673096,4.3277893-0.6137238,6.1676331l7.4020844,9.9229736
		c1.207016,1.8173828,5.9568024,0.7815552,9.3734589-3.6448975
		C196.0824432,156.2707367,195.8853302,151.3342133,193.794754,150.6582489z"/>
	<path class="st0" d="M195.1157684,130.9914703l-12.0931854,2.695755c-2.1457825,0.553299-3.3576508,3.0915985-3.4166565,5.4517822
		c-0.0085449,2.3480988,1.1188202,4.6234589,3.2264557,5.3531342l11.8875427,3.4548035
		c2.0662537,0.7433929,5.2113342-3.0362701,5.2787781-8.4795227
		C200.0697021,134.0485992,197.218338,130.4192505,195.1157684,130.9914703z"/>
	<path class="st0" d="M176.787735,128.2440796c1.3381958,2.5642242,3.6083832,4.1790771,5.7733002,3.6257629l11.8665619-3.5134888
		c2.1372528-0.5341721,2.7787476-5.029892,0.543045-9.3697739c-2.2201385-4.3261642-5.9463043-6.2661896-7.6994934-4.9538193
		l-10.0875549,7.186058C175.4008026,122.5415649,175.4873657,125.6590958,176.787735,128.2440796z"/>
	<path class="st0" d="M168.9341431,117.6222229c2.2857361,2.3360977,5.2580261,3.2870941,7.033905,1.967804l9.7727661-7.6028748
		c1.7878571-1.3226395,0.9422302-5.3842468-2.1959381-8.5899658c-3.1262817-3.2091751-7.0078583-4.0703659-8.4102478-2.3810501
		l-8.0436859,9.4097595C165.6679077,112.1359634,166.6552124,115.2725143,168.9341431,117.6222229z"/>
	<path class="st0" d="M173.246582,99.4358597c1.4125519-1.69104-0.1643677-5.317894-3.6761322-7.7557907
		c-3.5014954-2.4475098-7.3503265-2.6489487-8.4846039-0.7634964l-6.4546509,10.5699768
		c-1.1395721,1.9019928,0.4184265,4.9209671,3.2662354,6.9144897c2.8633575,1.9849854,6.1277466,2.3601913,7.5525055,0.6570511
		L173.246582,99.4358597z"/>
	<path class="st0" d="M145.03479,100.6669693c3.1936188,1.6546249,6.575592,1.5975647,7.7220764-0.3007507l6.2627258-10.6840973
		c1.1324463-1.887291-0.8577271-5.1838913-4.5475769-7.0900955c-3.6896515-1.9234924-7.464447-1.6859589-8.3911285,0.3250656
		l-5.2442932,11.2113571C139.9096985,96.1401291,141.8463745,99.0034866,145.03479,100.6669693z"/>
	<path class="st0" d="M1.0274541,33.5163956c0,0-10.2535563,22.6267471,34.0222549,12.5565834
		C7.9428039,9.6463299,1.0274541,33.5163956,1.0274541,33.5163956z"/>
	<path class="st0" d="M45.3852882,42.0778313C47.6495171,11.8700361,33.7268524,20.868063,33.7268524,20.868063
		S18.6658058,27.7940025,45.3852882,42.0778313z"/>
	<path class="st0" d="M40.3043823,55.8292084c-29.5932121-6.510746-22.6492252,8.5442505-22.6492252,8.5442505
		S22.3866787,80.2628479,40.3043823,55.8292084z"/>
	<path class="st0" d="M49.3768692,63.1320877l0.0466843,0.0171814c1.0692215,0.3847198,2.1823158,0.3729439,3.2458115,0.0751076
		l52.0625076,28.1397057c0.9489365,4.5764465,4.0642014,8.538414,8.6434555,10.2347488l0.1020203,0.0365295
		c6.7453537,2.4272003,14.269989-0.9165192,17.3932571-7.4978333c0.067749,0.0291824,0.1278381,0.0657043,0.1966705,0.0938034
		c3.4011078,1.3798065,6.8280334,0.980278,7.7549286-1.0296707l5.0973358-11.2849503
		c0.9267883-2.0038986-1.3504181-5.026329-5.1389313-6.5626144c-0.2687683-0.1101227-0.5344086-0.1858749-0.8015442-0.2748184
		l1.552063-4.2017746c1.3244781-3.588707,1.2224579-7.4653053-0.2766571-10.9122276
		c-1.5198517-3.4772873-4.2795715-6.1046257-7.8776855-7.4289932c-4.5468292-1.6358185-9.4426117-0.6404076-13.1081619,2.1930161
		L60.3631248,42.259491c-0.6260376-0.9319725-1.4769592-1.673748-2.5493164-2.0698166
		c-3.1365509-1.1282272-6.6974831,0.9440765-8.1118698,4.7221184l-3.4521103,9.351841
		c-0.7488022,2.0368576-0.7149773,4.218956,0.0993118,5.9844551C46.9845772,61.6234665,48.062767,62.6469727,49.3768692,63.1320877z
		"/>
</g>
</svg>
