<?xml version="1.0" encoding="utf-8"?>
<!-- Generator: Adobe Illustrator 24.1.2, SVG Export Plug-In . SVG Version: 6.00 Build 0)  -->
<svg version="1.1" id="Layer_1" xmlns="http://www.w3.org/2000/svg" xmlns:xlink="http://www.w3.org/1999/xlink" x="0px" y="0px"
	 viewBox="0 0 200 200.0000153" style="enable-background:new 0 0 200 200.0000153;" xml:space="preserve">
<style type="text/css">
	.st0{fill:#ffffff;}
</style>
<path class="st0" d="M199.1852875,153.1721497L150.173584,40.8361855c-2.5820618-5.9311905-9.5013275-8.657917-15.4375458-6.101593
	l-10.7886734,4.6483383l-3.5757751-8.1964283c-4.0398407-9.2680492-14.8789291-13.5485191-24.1602936-9.5452805
	l-20.4549255,8.795866c-9.2733841,4.0024109-13.5369682,14.7896233-9.5044785,24.0471153l25.1315613,57.6056709
	c2.0247345,4.6321259-0.1069794,10.025528-4.7594147,12.0224762l-9.7799835,4.2108765l-3.5751877-8.1989822
	c-1.2536697-2.8606491-4.5827866-4.1724243-7.4455109-2.9427948c-2.8610115,1.2342911-4.1681786,4.5415421-2.9236336,7.4061813
	l0.2938004,0.6731567c-18.4255447,6.5497894-36.8457565,13.1112671-55.2729988,19.6686707
	c-7.4798489,2.5617828-9.6891699,10.9998016-6.028697,19.3612213c3.6406872,8.372879,11.3391685,12.5414734,18.3442345,8.870163
	c17.4097576-8.8809357,34.8237305-17.76297,52.2358246-26.6405182l0.294754,0.675354
	c1.2471695,2.8580322,4.5713196,4.171875,7.4340744,2.9423218c2.8605881-1.2341461,4.1692429-4.545166,2.9267578-7.404953
	l-2.6168747-6.001297l9.7797394-4.2126465c9.2867661-3.9967499,13.5516891-14.7873611,9.5035858-24.0550613L74.6709518,50.8658028
	c-2.0212402-4.6307487,0.1104736-10.0241508,4.7542572-12.028656l20.4449234-8.7997208
	c4.6458969-1.9996338,10.069809,0.1441345,12.0923996,4.7714806l3.573761,8.1979408l-6.945694,2.9925919
	c-5.9445496,2.5569611-8.6622391,9.4329414-6.0708313,15.3597031l49.0019608,112.3401947
	c2.5861053,5.9206696,9.5034637,8.6626892,15.4378662,6.1017151l26.1394043-11.2596893
	C199.0470123,165.985733,201.7686462,159.0997772,199.1852875,153.1721497z M15.0188284,163.3880768
	c-2.2073708,0.9512787-4.7875566-0.0724487-5.7462883-2.2711792c-0.9695168-2.210968,0.0454779-4.7789917,2.2632303-5.7261658
	c2.2108622-0.9499054,4.7883892,0.061203,5.7576332,2.272049C18.2486439,159.8601379,17.2310696,162.4346924,15.0188284,163.3880768
	z"/>
</svg>
