<?xml version="1.0" encoding="utf-8"?>
<!-- Generator: Adobe Illustrator 24.1.2, SVG Export Plug-In . SVG Version: 6.00 Build 0)  -->
<svg version="1.1" id="Layer_1" xmlns="http://www.w3.org/2000/svg" xmlns:xlink="http://www.w3.org/1999/xlink" x="0px" y="0px"
	 viewBox="0 0 200 200.0000153" style="enable-background:new 0 0 200 200.0000153;" xml:space="preserve">
<style type="text/css">
	.st0{fill:#ffffff;}
</style>
<path class="st0" d="M199.8803711,21.6870174c-1.081665-1.6110573-3.5977631-2.158947-7.2362366-1.2156429L84.455719,48.495842
	c-6.8260269,1.7772446-11.5923157,8.7051849-10.5687943,15.4100075l5.4783249,36.1388054
	c0.2330093,1.5279617,0.7522964,3.0933456,1.4773102,4.6298294l-5.3361664,4.0999603l-4.8270721-5.6861572
	c-2.2572327-2.6569366-6.3362503-3.0984421-9.1082497-0.9680405c-2.7723846,2.1340179-3.1858406,6.0241852-0.9292679,8.6847687
	l0.5388489,0.6347275c-18.2779694,12.2561493-36.5552216,24.5147705-54.8338127,36.7736969
	c-7.4603958,4.8627472-7.2714391,14.4356537-0.625504,22.2368469c6.6193013,7.8229523,16.4166946,10.0216522,22.9814491,4.1027832
	c16.4439278-14.4268494,32.8847275-28.8458405,49.3299217-43.2619476l0.531601,0.6262512
	c2.2580643,2.6691437,6.3490829,3.0959778,9.1285706,0.9701996c2.7599411-2.1316223,3.1733475-6.0213699,0.9090042-8.6869812
	l-4.8203201-5.6782303l5.3091583-4.0777512c1.4510803,1.0318832,2.981926,1.8731918,4.5387192,2.4266815l36.1963196,12.8923492
	c6.6629333,2.3726196,14.7970886-0.5742798,18.0395203-6.5556259l51.5619507-94.7450562
	C201.0776215,25.4191551,201.1135559,23.0669327,199.8803711,21.6870174z M13.0832901,164.8045197
	c-1.6993752-2.0005188-1.3809071-4.8987427,0.6906614-6.4983673c2.0577116-1.5844421,5.1127272-1.2597351,6.8030481,0.7272491
	c1.6894531,1.9951477,1.3689308,4.893158-0.6893349,6.4858856C17.8170166,167.1107635,14.762002,166.7860718,13.0832901,164.8045197
	z"/>
</svg>
