<?xml version="1.0" encoding="utf-8"?>
<!-- Generator: Adobe Illustrator 24.1.2, SVG Export Plug-In . SVG Version: 6.00 Build 0)  -->
<svg version="1.1" id="Layer_1" xmlns="http://www.w3.org/2000/svg" xmlns:xlink="http://www.w3.org/1999/xlink" x="0px" y="0px"
	 viewBox="0 0 200 200.0000153" style="enable-background:new 0 0 200 200.0000153;" xml:space="preserve">
<style type="text/css">
	.st0{fill:#ffffff;}
</style>
<path id="XMLID_284_" class="st0" d="M200,102.1608276v-4.478302l-50.3383179,0.04039
	c-0.3141327-4.7863159-1.1476135-9.3910828-2.7178955-13.7143478l36.8071442-15.3833618l-1.691452-4.1307068l-36.7124786,15.3825455
	c-1.8868713-4.0172882-4.286972-7.7400284-7.130127-11.0845718l37.9270325-35.5065308l-3.0585632-3.2662144l-37.9070282,35.4906158
	c-3.6423645-3.5819855-7.8322296-6.6021957-12.4353638-8.9357872l15.1495972-35.2078934l-4.1135712-1.7697773
	l-15.4115143,35.1348686c-5.2954636-2.1079865-11.1506653-3.3302689-17.336319-3.4934578V0h-4.1237717v51.2827644
	c-4.1237717,0.3059807-10.7161636,1.5543709-15.6974869,3.5779076l-14.848114-33.1725273l-4.0087242,1.8440285l15.0471916,33.203125
	c-3.9707794,2.0496445-7.615181,4.6092567-10.8752823,7.6053925L31.3990765,30.2514553l-3.1128178,3.2148113l35.0916138,34.0455818
	c-3.5697479,3.925499-6.5116158,8.4307251-8.6922302,13.3475876L22.8900261,68.8830414l-1.576807,4.1902695l31.7474728,11.9580383
	c-1.37323,4.0503387-2.5130997,8.3381119-2.7986794,12.7780609L0,97.8395996v4.47789l50.1812325-0.0297852
	c0.1411705,5.6295929,1.326725,11.038063,3.1874771,16.0556946l-31.0424976,13.0314178l1.7677364,4.1298828l31.1473503-13.0367126
	c1.9207268,4.0242233,4.3816071,7.7432861,7.2610664,11.0817108l-35.4143143,33.1639709l3.0626373,3.2678375l35.4322662-33.1737518
	c3.9846497,3.8618622,8.6118546,7.0623932,13.706192,9.4290314l-13.9420013,32.3969727l4.1139832,1.7697754l13.6735535-32.4610291
	c4.4338303,1.5886383,9.6489182,2.569809,13.7726898,2.8366241v49.2208862h4.1237717v-49.1764069
	c6.1856537-0.1599274,11.8756256-1.3512115,17.1070404-3.4028931l15.4596405,33.8758698l4.1539612-1.842392l-15.2646332-33.8534393
	c4.5545883-2.2813721,8.7268982-5.2371216,12.353363-8.7407684l36.9821625,35.872879l3.1250458-3.2135925l-37.0147858-35.913269
	c3.4514313-3.9866943,6.2843781-8.521286,8.3381042-13.4642639l37.0653839,13.9615784l1.5764008-4.1923065l-37.1053619-13.9758606
	c1.3609924-4.3510132,1.8342285-8.9623108,1.943161-13.7351608L200,102.1608276z"/>
</svg>
